<svg xmlns="http://www.w3.org/2000/svg" xmlns:xlink="http://www.w3.org/1999/xlink" version="1.1" width="256" height="256" viewBox="0 0 256 256" xml:space="preserve">

<defs>
</defs>
<g style="stroke: none; stroke-width: 0; stroke-dasharray: none; stroke-linecap: butt; stroke-linejoin: miter; stroke-miterlimit: 10; fill: none; fill-rule: nonzero; opacity: 1;" transform="translate(1.4065934065934016 1.4065934065934016) scale(2.81 2.81)" >
	<path d="M 76.195 66.43 c -4.226 0 -7.663 -3.438 -7.663 -7.663 c 0 -4.225 3.438 -7.662 7.663 -7.662 s 7.663 3.438 7.663 7.662 C 83.858 62.992 80.421 66.43 76.195 66.43 z M 76.195 53.104 c -3.123 0 -5.663 2.54 -5.663 5.662 c 0 3.123 2.54 5.663 5.663 5.663 s 5.663 -2.54 5.663 -5.663 C 81.858 55.645 79.318 53.104 76.195 53.104 z" style="stroke: none; stroke-width: 1; stroke-dasharray: none; stroke-linecap: butt; stroke-linejoin: miter; stroke-miterlimit: 10; fill: rgb(0,0,0); fill-rule: nonzero; opacity: 1;" transform=" matrix(1 0 0 1 0 0) " stroke-linecap="round" />
	<path d="M 19.659 66.43 c -4.226 0 -7.663 -3.438 -7.663 -7.663 c 0 -4.225 3.438 -7.662 7.663 -7.662 s 7.663 3.438 7.663 7.662 C 27.322 62.992 23.884 66.43 19.659 66.43 z M 19.659 53.104 c -3.123 0 -5.663 2.54 -5.663 5.662 c 0 3.123 2.541 5.663 5.663 5.663 s 5.663 -2.54 5.663 -5.663 C 25.322 55.645 22.781 53.104 19.659 53.104 z" style="stroke: none; stroke-width: 1; stroke-dasharray: none; stroke-linecap: butt; stroke-linejoin: miter; stroke-miterlimit: 10; fill: rgb(0,0,0); fill-rule: nonzero; opacity: 1;" transform=" matrix(1 0 0 1 0 0) " stroke-linecap="round" />
	<path d="M 5.096 59.792 C 2.285 59.792 0 57.508 0 54.699 V 28.413 c 0 -2.67 2.172 -4.843 4.843 -4.843 h 55.06 c 3.093 0 6 1.364 7.977 3.742 l 9.989 12.02 c 0.354 0.425 0.295 1.055 -0.129 1.408 c -0.428 0.353 -1.057 0.293 -1.408 -0.13 l -9.99 -12.02 c -1.596 -1.919 -3.942 -3.021 -6.438 -3.021 H 4.843 C 3.275 25.57 2 26.845 2 28.413 v 26.287 c 0 1.705 1.387 3.093 3.093 3.093 l 7.899 -0.025 c 0.001 0 0.002 0 0.003 0 c 0.551 0 0.998 0.445 1 0.997 s -0.444 1.001 -0.997 1.003 L 5.096 59.792 z" style="stroke: none; stroke-width: 1; stroke-dasharray: none; stroke-linecap: butt; stroke-linejoin: miter; stroke-miterlimit: 10; fill: rgb(0,0,0); fill-rule: nonzero; opacity: 1;" transform=" matrix(1 0 0 1 0 0) " stroke-linecap="round" />
	<path d="M 86.917 59.792 l -4.07 -0.025 c -0.552 -0.007 -0.995 -0.459 -0.988 -1.012 c 0.007 -0.552 0.463 -1.013 1.012 -0.988 l 4.047 0.025 c 0.598 0 1.083 -0.485 1.083 -1.083 v -9.306 c 0 -0.796 -0.467 -1.524 -1.189 -1.857 l -9.931 -4.575 H 55.2 c -0.553 0 -1 -0.448 -1 -1 V 24.747 c 0 -0.552 0.447 -1 1 -1 s 1 0.448 1 1 v 14.224 H 77.1 c 0.145 0 0.287 0.031 0.419 0.092 l 10.129 4.667 C 89.076 44.387 90 45.83 90 47.403 v 9.306 C 90 58.409 88.617 59.792 86.917 59.792 z" style="stroke: none; stroke-width: 1; stroke-dasharray: none; stroke-linecap: butt; stroke-linejoin: miter; stroke-miterlimit: 10; fill: rgb(0,0,0); fill-rule: nonzero; opacity: 1;" transform=" matrix(1 0 0 1 0 0) " stroke-linecap="round" />
	<path d="M 69.532 59.767 h -43.21 c -0.552 0 -1 -0.447 -1 -1 s 0.448 -1 1 -1 h 43.21 c 0.553 0 1 0.447 1 1 S 70.085 59.767 69.532 59.767 z" style="stroke: none; stroke-width: 1; stroke-dasharray: none; stroke-linecap: butt; stroke-linejoin: miter; stroke-miterlimit: 10; fill: rgb(0,0,0); fill-rule: nonzero; opacity: 1;" transform=" matrix(1 0 0 1 0 0) " stroke-linecap="round" />
	<path d="M 76.2 59.77 c -0.271 0 -0.521 -0.109 -0.71 -0.3 c -0.19 -0.189 -0.301 -0.439 -0.301 -0.7 c 0 -0.27 0.11 -0.529 0.301 -0.71 c 0.369 -0.37 1.04 -0.37 1.409 0 c 0.19 0.19 0.29 0.44 0.29 0.71 c 0 0.261 -0.1 0.511 -0.29 0.7 c -0.09 0.1 -0.199 0.17 -0.319 0.22 C 76.46 59.74 76.33 59.77 76.2 59.77 z" style="stroke: none; stroke-width: 1; stroke-dasharray: none; stroke-linecap: butt; stroke-linejoin: miter; stroke-miterlimit: 10; fill: rgb(0,0,0); fill-rule: nonzero; opacity: 1;" transform=" matrix(1 0 0 1 0 0) " stroke-linecap="round" />
	<path d="M 19.66 59.77 c -0.27 0 -0.52 -0.109 -0.71 -0.3 c -0.19 -0.18 -0.29 -0.43 -0.29 -0.7 c 0 -0.13 0.03 -0.26 0.08 -0.39 c 0.05 -0.12 0.12 -0.23 0.21 -0.32 c 0.37 -0.37 1.04 -0.37 1.42 0 c 0.09 0.09 0.16 0.2 0.21 0.32 c 0.05 0.13 0.08 0.26 0.08 0.39 s -0.03 0.261 -0.08 0.38 c -0.05 0.12 -0.12 0.23 -0.21 0.32 C 20.18 59.66 19.93 59.77 19.66 59.77 z" style="stroke: none; stroke-width: 1; stroke-dasharray: none; stroke-linecap: butt; stroke-linejoin: miter; stroke-miterlimit: 10; fill: rgb(0,0,0); fill-rule: nonzero; opacity: 1;" transform=" matrix(1 0 0 1 0 0) " stroke-linecap="round" />
	<path d="M 55.2 40.971 H 39.246 c -0.552 0 -1 -0.448 -1 -1 s 0.448 -1 1 -1 H 54.2 V 24.57 c 0 -0.552 0.447 -1 1 -1 s 1 0.448 1 1 v 15.401 C 56.2 40.523 55.753 40.971 55.2 40.971 z" style="stroke: none; stroke-width: 1; stroke-dasharray: none; stroke-linecap: butt; stroke-linejoin: miter; stroke-miterlimit: 10; fill: rgb(0,0,0); fill-rule: nonzero; opacity: 1;" transform=" matrix(1 0 0 1 0 0) " stroke-linecap="round" />
	<path d="M 39.246 40.971 H 23.291 c -0.552 0 -1 -0.448 -1 -1 V 24.57 c 0 -0.552 0.448 -1 1 -1 s 1 0.448 1 1 v 14.401 h 13.955 V 24.57 c 0 -0.552 0.448 -1 1 -1 s 1 0.448 1 1 v 15.401 C 40.246 40.523 39.798 40.971 39.246 40.971 z" style="stroke: none; stroke-width: 1; stroke-dasharray: none; stroke-linecap: butt; stroke-linejoin: miter; stroke-miterlimit: 10; fill: rgb(0,0,0); fill-rule: nonzero; opacity: 1;" transform=" matrix(1 0 0 1 0 0) " stroke-linecap="round" />
	<path d="M 23.291 40.971 H 10.068 c -2.058 0 -3.732 -1.674 -3.732 -3.732 V 24.57 c 0 -0.552 0.448 -1 1 -1 s 1 0.448 1 1 v 12.669 c 0 0.955 0.777 1.732 1.732 1.732 h 13.223 c 0.552 0 1 0.448 1 1 S 23.843 40.971 23.291 40.971 z" style="stroke: none; stroke-width: 1; stroke-dasharray: none; stroke-linecap: butt; stroke-linejoin: miter; stroke-miterlimit: 10; fill: rgb(0,0,0); fill-rule: nonzero; opacity: 1;" transform=" matrix(1 0 0 1 0 0) " stroke-linecap="round" />
</g>
</svg>